<svg version="1.1" id="Capa_1" xmlns="http://www.w3.org/2000/svg" xmlns:xlink="http://www.w3.org/1999/xlink" x="0px" y="0px" viewBox="0 0 512 512" style="enable-background:new 0 0 512 512;" xml:space="preserve"><g><g id="Page-1_17_"><g id="_x30_18---Email"><path id="Shape_82_" d="m25.22 218.973v244.565c-.132 26.167 20.938 47.504 47.104 47.701h366.592c26.166-.197 47.237-21.535 47.104-47.701v-244.565c-.031-11.91-5.014-23.271-13.756-31.36l-28.911-26.65v-93.457c0-14.138-11.462-25.6-25.6-25.6h-103.415l-35.584-32.879c-13.068-12.037-33.183-12.037-46.251 0l-35.601 32.879h-103.415c-14.138 0-25.6 11.462-25.6 25.6v93.457l-28.928 26.658c-8.732 8.092-13.708 19.448-13.739 31.352zm176.247 124.399-154.538 136.354c-3.02-4.861-4.627-10.466-4.642-16.188v-243.976zm-129.143 150.801c-4.38-.019-8.7-1.025-12.638-2.944l155.486-137.199 24.653 19.183c9.244 7.341 22.329 7.341 31.573 0l24.747-19.217 155.409 137.233c-3.938 1.919-8.258 2.925-12.638 2.944zm396.629-274.611v243.977c-.01 5.731-1.618 11.345-4.642 16.213l-154.539-136.38zm-8.277-19.413c.79.787 1.529 1.625 2.21 2.509l-19.533 15.189v-33.673zm-216.576-178.62c6.509-5.999 16.531-5.999 23.04 0l22.05 20.378h-67.14zm-150.613 37.444h324.267c4.713 0 8.533 3.821 8.533 8.533v163.618l-165.462 128.692c-3.066 2.441-7.416 2.424-10.462-.043l-165.41-128.648v-163.619c0-4.712 3.821-8.533 8.534-8.533zm-25.6 125.201v33.673l-19.533-15.189c.676-.88 1.408-1.716 2.193-2.5z"/><path id="Shape_81_" d="m255.62 297.906c21.929.078 43.293-6.948 60.894-20.028 3.784-2.809 4.575-8.154 1.766-11.938s-8.154-4.575-11.938-1.766c-14.661 10.892-32.458 16.74-50.722 16.666-47.128 0-85.333-38.205-85.333-85.333s38.205-85.333 85.333-85.333 85.333 38.205 85.333 85.333v17.067c0 9.426-7.641 17.067-17.067 17.067s-17.067-7.641-17.067-17.067v-59.734c0-4.713-3.82-8.533-8.533-8.533s-8.533 3.821-8.533 8.533v4.608c-15.459-13.904-37.792-17.077-56.513-8.032-18.721 9.046-30.113 28.515-28.827 49.267s14.993 38.666 34.688 45.331 41.464.759 55.089-14.946c7.486 13.634 23.267 20.454 38.326 16.562 15.06-3.892 25.561-17.503 25.503-33.057v-17.067c0-56.554-45.846-102.4-102.4-102.4s-102.4 45.846-102.4 102.4 45.847 102.4 102.401 102.4zm0-68.266c-18.851 0-34.133-15.282-34.133-34.133s15.282-34.133 34.133-34.133 34.133 15.282 34.133 34.133-15.282 34.133-34.133 34.133z"/></g></g></g></svg>